<svg width="20" height="18" viewBox="0 0 20 18" fill="none" xmlns="http://www.w3.org/2000/svg">
<path d="M3.14333 3.94432L0.276914 1.33932L1.574 0.160156L19.7231 16.6602L18.426 17.8385L15.3918 15.0802C13.7796 16.0098 11.9092 16.5021 10 16.4993C5.05733 16.4993 0.945164 13.266 0.0825806 8.99932C0.476774 7.05825 1.55074 5.28507 3.14425 3.94432H3.14333ZM12.5272 12.476L11.1852 11.256C10.672 11.4793 10.0951 11.5523 9.53427 11.465C8.97341 11.3777 8.45615 11.1344 8.0538 10.7686C7.65144 10.4028 7.3838 9.93258 7.28778 9.42271C7.19176 8.91284 7.27208 8.38845 7.51766 7.92182L6.17566 6.70182C5.5924 7.50306 5.33166 8.46293 5.43759 9.4189C5.54352 10.3749 6.00961 11.2682 6.75694 11.9476C7.50427 12.6269 8.48691 13.0507 9.53847 13.147C10.59 13.2433 11.6459 13.0062 12.5272 12.476V12.476ZM6.3095 2.13266C7.45258 1.72432 8.69833 1.49932 10 1.49932C14.9427 1.49932 19.0548 4.73266 19.9174 8.99932C19.6365 10.3874 19.0052 11.6973 18.0731 12.826L14.5347 9.60932C14.6399 8.96567 14.5777 8.30858 14.3532 7.6907C14.1287 7.07282 13.7481 6.51133 13.242 6.05121C12.7359 5.59109 12.1182 5.24513 11.4386 5.04105C10.7589 4.83697 10.0361 4.78044 9.32808 4.87599L6.3095 2.13349V2.13266Z" fill="#888888"/>
</svg>
